<svg xmlns="http://www.w3.org/2000/svg" viewBox="-5 -5 46 58">
  <path d="m 3.2002 0 C 2.0802 0 1.5198 -0.0003 1.0898 0.2197 C 0.7198 0.4097 0.4097 0.7198 0.2197 1.0898 C -0.0003 1.5198 0 2.0802 0 3.2002 L 0 44.7998 C 0 45.9198 -0.0003 46.4802 0.2197 46.9102 C 0.4097 47.2802 0.7198 47.5903 1.0898 47.7803 C 1.5198 48.0003 2.0802 48 3.2002 48 L 32.7998 48 C 33.9198 48 34.4802 48.0003 34.9102 47.7803 C 35.2802 47.5903 35.5903 47.2802 35.7803 46.9102 C 36.0003 46.4802 36 45.9198 36 44.7998 L 36 14.6504 C 36 13.6704 35.9996 13.1797 35.8896 12.7197 C 35.8296 12.4697 35.7496 12.23 35.6396 12 C 35.5696 11.85 35.5002 11.7103 35.4102 11.5703 C 35.1602 11.1603 34.8199 10.8199 34.1299 10.1299 L 25.8701 1.8701 C 25.1801 1.1801 24.8397 0.8398 24.4297 0.5898 C 24.2897 0.4998 24.15 0.4304 24 0.3604 C 23.77 0.2504 23.5303 0.1704 23.2803 0.1104 C 22.8203 0.0004 22.3296 0 21.3496 0 L 3.2002 0 z
" stroke="#fff" stroke-width="5" fill="none"/>
</svg>