<?xml version="1.0" encoding="UTF-8" standalone="no"?>
<svg
   viewBox="0 0 512 512"
   version="1.1"
   id="svg4"
   sodipodi:docname="ln.svg"
   inkscape:version="1.3 (0e150ed6c4, 2023-07-21)"
   xml:space="preserve"
   xmlns:inkscape="http://www.inkscape.org/namespaces/inkscape"
   xmlns:sodipodi="http://sodipodi.sourceforge.net/DTD/sodipodi-0.dtd"
   xmlns="http://www.w3.org/2000/svg"
   xmlns:svg="http://www.w3.org/2000/svg"><defs
     id="defs8" /><sodipodi:namedview
     id="namedview6"
     pagecolor="#ffffff"
     bordercolor="#666666"
     borderopacity="1.0"
     inkscape:pageshadow="2"
     inkscape:pageopacity="0.0"
     inkscape:pagecheckerboard="0"
     showgrid="false"
     inkscape:zoom="0.6759581"
     inkscape:cx="190.10054"
     inkscape:cy="245.57735"
     inkscape:window-width="1440"
     inkscape:window-height="878"
     inkscape:window-x="-6"
     inkscape:window-y="-6"
     inkscape:window-maximized="1"
     inkscape:current-layer="svg4"
     inkscape:showpageshadow="2"
     inkscape:deskcolor="#d1d1d1" /><g
     id="g1"
     transform="matrix(0.89601861,0,0,0.89601861,28.205768,27.579567)"
     style="display:inline;opacity:1"><path
       id="path0-9"
       d="m 62.619346,449.79211 c 38.380554,35.01064 163.134744,45.54569 204.072614,-49.98986 -49.0648,27.2418 -93.127,32.94514 -140.93757,12.64281 -66.481396,-33.43981 -58.601258,-148.98333 -3.29977,-215.5895 62.72146,-75.54293 84.69888,-83.60747 141.38533,-114.595385 48.36792,-25.246624 121.45901,-31.138284 157.3944,-17.896109 39.55818,14.577172 49.12975,42.492764 51.88059,54.166344 3.36437,14.27718 3.77859,43.5144 -5.04315,61.39634 18.9981,-26.99952 20.23354,-43.22545 19.89844,-59.3573 C 487.32885,89.693809 463.61907,65.261434 445.24689,53.73322 409.85271,31.52401 355.99088,31.207663 307.3893,41.430843 98.4254,85.444249 -58.229631,333.35717 62.619346,449.79211 Z"
       stroke="none"
       fill="#000000"
       fill-rule="evenodd"
       style="display:inline;opacity:1;fill:#000000;fill-opacity:1;stroke-width:1.24831"
       sodipodi:nodetypes="cccscsscsscc" /><path
       id="path1"
       style="display:inline;opacity:1;fill:#000000;fill-opacity:1"
       d="m 317,146 -32,78 -63,-25 27,61.31641 L 166,294 242,319.90625 220,389 l 60,-25 37,78 37,-78 60,25 L 392,319.90625 468,294 385,260.31641 412,199 349,224 Z" /></g></svg>
