<?xml version="1.0" encoding="UTF-8" standalone="no"?>
<svg
   viewBox="0 0 512 512"
   version="1.1"
   id="svg4"
   sodipodi:docname="n25.svg"
   inkscape:version="1.3 (0e150ed6c4, 2023-07-21)"
   xml:space="preserve"
   xmlns:inkscape="http://www.inkscape.org/namespaces/inkscape"
   xmlns:sodipodi="http://sodipodi.sourceforge.net/DTD/sodipodi-0.dtd"
   xmlns="http://www.w3.org/2000/svg"
   xmlns:svg="http://www.w3.org/2000/svg"><defs
     id="defs8" /><sodipodi:namedview
     id="namedview6"
     pagecolor="#ffffff"
     bordercolor="#666666"
     borderopacity="1.0"
     inkscape:pageshadow="2"
     inkscape:pageopacity="0.0"
     inkscape:pagecheckerboard="0"
     showgrid="false"
     inkscape:zoom="1"
     inkscape:cx="178"
     inkscape:cy="264"
     inkscape:window-width="1440"
     inkscape:window-height="878"
     inkscape:window-x="-6"
     inkscape:window-y="-6"
     inkscape:window-maximized="1"
     inkscape:current-layer="svg4"
     inkscape:showpageshadow="2"
     inkscape:deskcolor="#d1d1d1" /><path
     id="path0-0"
     d="M 243.40731,58.375954 279.05436,139.58007 294.1175,33.277752 M 106.85603,166.92582 c -27.517229,34.07659 -59.185574,63.93321 -58.781187,74.08794 0.447784,11.24449 45.755963,57.15142 83.813687,96.82337 L 226,432.54936 l -1,46.17289 c 133.45568,-116.03921 38.15596,-35.42556 154.90781,-138.42377 58.80824,-51.87906 84.02118,-77.82834 84.02118,-87.08533 0,-8.33186 -24.62479,-35.10236 -46.73564,-55.17132 -39.81896,-37.94513 -51.69451,-50.935 -59.21688,-50.69209 -5.89975,0.19052 -53.27066,49.08717 -53.27066,49.08717 -29.29884,27.90061 -50.70915,48.22147 -51.16258,51.12852 -0.41739,2.676 16.03734,19.85226 31.63076,39.90408 8.83003,11.84831 10.93248,13.07645 30.61849,41.63412 -24.96747,-11.72851 -20.43371,-9.14935 -30.68829,-15.63437 -33.68646,-21.30445 -46.70485,-31.90418 -58.47803,-31.65108 -8.63274,0.18559 -16.79493,7.90131 -29.99979,16.75971 -15.25922,10.23685 -14.70375,9.31068 -30.79562,19.03014 12.20513,-18.85708 11.97593,-18.76959 22.34387,-32.73739 8.00045,-12.03391 15.1858,-18.71746 15.55103,-25.11082 0.48121,-8.42376 -8.5126,-16.51611 -24.71405,-37.39134 -12.4507,-16.04303 -11.2605,-14.35686 -26.97633,-35.46368 24.40828,12.15815 23.01992,10.42535 41.02919,20.59228 17.19257,9.70579 29.7336,17.71774 34.75301,17.43728 3.11586,-0.1741 7.99338,-6.31845 23.31828,-20.02206 19.23136,-19.37671 21.87538,-20.67196 21.18083,-25.01532 -1.16,-7.25426 -17.29991,-21.77002 -37.80603,-43.57819 -16.84149,-14.96601 -40.18069,-39.172487 -53.21923,-39.498825 -9.81574,-0.245674 -43.44576,37.096855 -74.43529,70.105855 z m 202.61562,-61.84323 -3.83448,55.20934 31.93713,-31.18566"
     stroke="none"
     fill="#000000"
     fill-rule="evenodd"
     style="display:inline;opacity:1;fill:#000000;fill-opacity:1;stroke-width:1.10796"
     sodipodi:nodetypes="ccccsccccscscscccscccscccscscscccc" /></svg>
