<?xml version="1.0" encoding="UTF-8" standalone="no"?>
<svg
   viewBox="0 0 512 512"
   version="1.1"
   id="svg4"
   sodipodi:docname="nightcordlogo.svg"
   inkscape:version="1.3 (0e150ed6c4, 2023-07-21)"
   xml:space="preserve"
   xmlns:inkscape="http://www.inkscape.org/namespaces/inkscape"
   xmlns:sodipodi="http://sodipodi.sourceforge.net/DTD/sodipodi-0.dtd"
   xmlns="http://www.w3.org/2000/svg"
   xmlns:svg="http://www.w3.org/2000/svg"><defs
     id="defs8" /><sodipodi:namedview
     id="namedview6"
     pagecolor="#ffffff"
     bordercolor="#666666"
     borderopacity="1.0"
     inkscape:pageshadow="2"
     inkscape:pageopacity="0.0"
     inkscape:pagecheckerboard="0"
     showgrid="false"
     inkscape:zoom="0.70214845"
     inkscape:cx="316.17246"
     inkscape:cy="274.87065"
     inkscape:window-width="1440"
     inkscape:window-height="878"
     inkscape:window-x="-6"
     inkscape:window-y="-6"
     inkscape:window-maximized="1"
     inkscape:current-layer="svg4"
     inkscape:showpageshadow="2"
     inkscape:deskcolor="#d1d1d1" /><g
     id="g1"
     transform="translate(-0.4999995,-0.4999995)"><circle
       style="opacity:1;fill:#000000;fill-opacity:1;stroke-width:1.25431"
       id="path1"
       cx="251"
       cy="-255"
       transform="scale(1,-1)"
       r="30" /><circle
       style="opacity:1;fill:#000000;fill-opacity:1;stroke-width:1.2543"
       id="path1-8"
       cx="376"
       cy="-255"
       transform="scale(1,-1)"
       r="30" /><path
       id="path2"
       style="opacity:1;fill:#000000;fill-opacity:1;stroke-width:1.03265"
       d="M 256.5,28.542969 C 130.60261,28.542969 28.542969,130.60261 28.542969,256.5 28.542969,382.39739 130.60261,484.45703 256.5,484.45703 382.39739,484.45703 484.45703,382.39739 484.45703,256.5 484.45703,130.60261 382.39739,28.542969 256.5,28.542969 Z M 308,86 c 93.33603,0 169,75.66397 169,169 0,93.33603 -75.66397,169 -169,169 -93.33603,0 -169,-75.66397 -169,-169 0,-93.33603 75.66397,-169 169,-169 z" /></g></svg>
