<?xml version="1.0" encoding="UTF-8" standalone="no"?>
<svg
   viewBox="0 0 512 512"
   version="1.1"
   id="svg4"
   sodipodi:docname="vs.svg"
   inkscape:version="1.3 (0e150ed6c4, 2023-07-21)"
   xml:space="preserve"
   xmlns:inkscape="http://www.inkscape.org/namespaces/inkscape"
   xmlns:sodipodi="http://sodipodi.sourceforge.net/DTD/sodipodi-0.dtd"
   xmlns="http://www.w3.org/2000/svg"
   xmlns:svg="http://www.w3.org/2000/svg"><defs
     id="defs8" /><sodipodi:namedview
     id="namedview6"
     pagecolor="#ffffff"
     bordercolor="#666666"
     borderopacity="1.0"
     inkscape:pageshadow="2"
     inkscape:pageopacity="0.0"
     inkscape:pagecheckerboard="0"
     showgrid="false"
     inkscape:zoom="0.91299935"
     inkscape:cx="329.13496"
     inkscape:cy="281.4898"
     inkscape:window-width="1440"
     inkscape:window-height="878"
     inkscape:window-x="-6"
     inkscape:window-y="-6"
     inkscape:window-maximized="1"
     inkscape:current-layer="svg4"
     inkscape:showpageshadow="2"
     inkscape:deskcolor="#d1d1d1" /><g
     id="g4"
     style="display:inline"
     transform="translate(3.8971802,0.794746)"><circle
       style="display:inline;opacity:1;fill:#000000;stroke-width:1.12879"
       id="path1"
       cx="164.96588"
       cy="374.85208"
       r="115.39867" /><path
       style="display:inline;opacity:1;fill:#000000"
       d="M 244.6992,302.78578 262.60659,43.615484 c 1.42582,-16.310244 1.88732,-18.639193 5.33029,-20.917398 3.62477,-2.398498 7.35502,-3.10844 15.55358,-2.082023 50.37261,6.306394 178.79666,45.617209 170.78993,214.875467 -0.48149,10.17849 -1.27279,20.98281 -5.5822,21.62128 -3.56631,0.52837 -8.15614,-6.50331 -13.6755,-13.81091 -39.36322,-52.11667 -105.42022,-60.41877 -128.351,-59.58733 -4.80612,0.17426 -6.45935,-0.096 -8.31204,1.36793 -1.89082,1.49405 -1.97026,6.39512 -2.13362,9.70361 -0.0625,1.26589 -8.71507,122.53671 -12.63034,180.10873 -1.14605,16.85218 -3.56583,24.20114 -4.31538,27.31684 -6.18616,25.71424 -20.95095,51.87325 -56.06872,71.99922 z"
       id="path2"
       sodipodi:nodetypes="ccsssssssssscc" /></g></svg>
