<?xml version="1.0" encoding="UTF-8" standalone="no"?>
<svg
   version="1.0"
   width="400.000000pt"
   height="400.000000pt"
   viewBox="0 0 400.000000 400.000000"
   preserveAspectRatio="xMidYMid meet"
   id="svg10"
   sodipodi:docname="nightcordlogo (1).svg"
   inkscape:version="1.1.1 (3bf5ae0d25, 2021-09-20)"
   xmlns:inkscape="http://www.inkscape.org/namespaces/inkscape"
   xmlns:sodipodi="http://sodipodi.sourceforge.net/DTD/sodipodi-0.dtd"
   xmlns="http://www.w3.org/2000/svg"
   xmlns:svg="http://www.w3.org/2000/svg">
  <defs
     id="defs14" />
  <sodipodi:namedview
     id="namedview12"
     pagecolor="#ffffff"
     bordercolor="#666666"
     borderopacity="1.0"
     inkscape:pageshadow="2"
     inkscape:pageopacity="0.0"
     inkscape:pagecheckerboard="0"
     inkscape:document-units="pt"
     showgrid="false"
     inkscape:zoom="1.348125"
     inkscape:cx="266.66667"
     inkscape:cy="266.66667"
     inkscape:window-width="1920"
     inkscape:window-height="1051"
     inkscape:window-x="-9"
     inkscape:window-y="-9"
     inkscape:window-maximized="1"
     inkscape:current-layer="svg10" />
  <g
     transform="translate(0.000000,400.000000) scale(0.100000,-0.100000)"
     fill="#000000"
     stroke="none"
     id="g8"
     style="fill:#ffffff;fill-opacity:1">
    <path
       d="M1805 3335 c-286 -47 -553 -181 -751 -379 -183 -183 -310 -419 -366 -679 -31 -145 -31 -389 0 -534 71 -331 254 -616 522 -813 103 -76 295 -171 412 -204 477 -136 976 -8 1323 339 187 187 310 414 367 678 28 134 31 379 5 510 -109 544 -515 958 -1050 1068 -134 27 -340 34 -462 14z m640 -346 c397 -47 732 -336 832 -717 22 -85 25 -118 26 -262 0 -146 -3 -176 -26 -263 -58 -217 -201 -422 -381 -546 -127 -88 -303 -153 -464 -171 -222 -26 -477 39 -668 171 -288 198 -458 576 -414 919 44 339 240 621 535 768 133 66 288 106 430 111 22 0 81 -4 130 -10z"
       id="path2"
       style="fill:#ffffff;fill-opacity:1" />
    <path
       d="M1945 2155 c-103 -36 -134 -172 -54 -239 90 -76 215 -38 240 74 8 37 6 50 -13 88 -38 76 -98 102 -173 77z"
       id="path4"
       style="fill:#ffffff;fill-opacity:1" />
    <path
       d="M2655 2155 c-103 -36 -134 -172 -54 -239 90 -76 215 -38 240 74 8 37 6 50 -13 88 -38 76 -98 102 -173 77z"
       id="path6"
       style="fill:#ffffff;fill-opacity:1" />
  </g>
</svg>
