<?xml version="1.0" encoding="UTF-8" standalone="no"?>
<svg
   viewBox="0 0 512 512"
   version="1.1"
   id="svg4"
   sodipodi:docname="ln.svg"
   inkscape:version="1.3 (0e150ed6c4, 2023-07-21)"
   xml:space="preserve"
   xmlns:inkscape="http://www.inkscape.org/namespaces/inkscape"
   xmlns:sodipodi="http://sodipodi.sourceforge.net/DTD/sodipodi-0.dtd"
   xmlns="http://www.w3.org/2000/svg"
   xmlns:svg="http://www.w3.org/2000/svg"><defs
     id="defs8" /><sodipodi:namedview
     id="namedview6"
     pagecolor="#ffffff"
     bordercolor="#666666"
     borderopacity="1.0"
     inkscape:pageshadow="2"
     inkscape:pageopacity="0.0"
     inkscape:pagecheckerboard="0"
     showgrid="false"
     inkscape:zoom="1"
     inkscape:cx="206"
     inkscape:cy="245"
     inkscape:window-width="1440"
     inkscape:window-height="878"
     inkscape:window-x="-6"
     inkscape:window-y="-6"
     inkscape:window-maximized="1"
     inkscape:current-layer="svg4"
     inkscape:showpageshadow="2"
     inkscape:deskcolor="#d1d1d1" /><g
     id="g1"
     transform="matrix(0.89601861,0,0,0.89601861,30.466912,28.816515)"><path
       id="path0-9"
       d="M 310.47896,33.046064 C 101.51506,77.059454 -58.229631,333.35717 62.619346,449.79211 109.66797,495.12188 218.32431,491.21015 266.69196,399.80225 217.62716,427.04405 176.45432,429.0325 128.64375,408.73017 57.209167,372.81377 46.927631,279.97234 117.08867,193.9662 179.1544,117.88361 204.33496,104.20874 261.02141,73.220823 352.67605,22.082289 430.1357,63.257283 439.03332,70.122038 471.47118,95.148739 477.06133,135.88158 476.70535,155.70735 491.62942,110.99218 477.11388,79.342387 441.11924,52.907689 409.6813,29.819455 359.74725,24.019679 310.47896,33.046033"
       stroke="none"
       fill="#000000"
       fill-rule="evenodd"
       style="display:inline;opacity:1;fill:#000000;fill-opacity:1;stroke-width:1.24831"
       sodipodi:nodetypes="ccccscscsc" /><path
       id="path1"
       style="opacity:1;fill:#000000;fill-opacity:1"
       d="m 317,146 -32,78 -63,-25 27,61.31641 L 166,294 242,319.90625 220,389 l 60,-25 37,78 37,-78 60,25 L 392,319.90625 468,294 385,260.31641 412,199 349,224 Z" /></g></svg>
