<?xml version="1.0" encoding="UTF-8" standalone="no"?>
<svg
   viewBox="0 0 512 512"
   version="1.1"
   id="svg4"
   sodipodi:docname="mmj.svg"
   inkscape:version="1.3 (0e150ed6c4, 2023-07-21)"
   xml:space="preserve"
   xmlns:inkscape="http://www.inkscape.org/namespaces/inkscape"
   xmlns:sodipodi="http://sodipodi.sourceforge.net/DTD/sodipodi-0.dtd"
   xmlns:xlink="http://www.w3.org/1999/xlink"
   xmlns="http://www.w3.org/2000/svg"
   xmlns:svg="http://www.w3.org/2000/svg"><defs
     id="defs8" /><sodipodi:namedview
     id="namedview6"
     pagecolor="#ffffff"
     bordercolor="#666666"
     borderopacity="1.0"
     inkscape:pageshadow="2"
     inkscape:pageopacity="0.0"
     inkscape:pagecheckerboard="0"
     showgrid="false"
     inkscape:zoom="0.70710678"
     inkscape:cx="239.00209"
     inkscape:cy="257.38687"
     inkscape:window-width="1440"
     inkscape:window-height="878"
     inkscape:window-x="-6"
     inkscape:window-y="-6"
     inkscape:window-maximized="1"
     inkscape:current-layer="svg4"
     inkscape:showpageshadow="2"
     inkscape:deskcolor="#d1d1d1" /><g
     id="g1"
     transform="translate(-0.773505,4.1228155)"><path
       id="path0"
       style="display:inline;opacity:1;fill:#000000;fill-opacity:1;stroke-width:1.27217"
       d="m 210,35 c -10.34158,-0.134179 -20.4379,4.475565 -29.85381,10.216834 -47.23792,34.358592 -28.61438,129.309656 35.33321,188.964806 41.01528,38.59736 41.16319,39.54071 83.63282,0 C 363.05981,174.52649 377.38526,72.503466 335.68287,43.625844 326.26696,37.884575 316.34158,34.865821 306,35 295.65843,35.134177 283.0079,37.264971 272.75,47.875 254.74885,66.494083 257.39748,64.906557 240,46.875 232.74017,39.350578 220.34157,35.134177 210,35 Z"
       sodipodi:nodetypes="sccccssss" /><use
       x="0"
       y="0"
       xlink:href="#path0"
       id="use1"
       transform="rotate(122.5,258.83039,275.76177)" /><use
       x="0"
       y="0"
       xlink:href="#use1"
       id="use2"
       transform="matrix(-1,0,0,1,513.54701,0)" /></g></svg>
