<?xml version="1.0" encoding="UTF-8" standalone="no"?>
<svg
   viewBox="0 0 512 512"
   version="1.1"
   id="svg4"
   sodipodi:docname="n25.svg"
   inkscape:version="1.3 (0e150ed6c4, 2023-07-21)"
   xml:space="preserve"
   xmlns:inkscape="http://www.inkscape.org/namespaces/inkscape"
   xmlns:sodipodi="http://sodipodi.sourceforge.net/DTD/sodipodi-0.dtd"
   xmlns="http://www.w3.org/2000/svg"
   xmlns:svg="http://www.w3.org/2000/svg"><defs
     id="defs8" /><sodipodi:namedview
     id="namedview6"
     pagecolor="#ffffff"
     bordercolor="#666666"
     borderopacity="1.0"
     inkscape:pageshadow="2"
     inkscape:pageopacity="0.0"
     inkscape:pagecheckerboard="0"
     showgrid="false"
     inkscape:zoom="1"
     inkscape:cx="134"
     inkscape:cy="223"
     inkscape:window-width="1440"
     inkscape:window-height="878"
     inkscape:window-x="-6"
     inkscape:window-y="-6"
     inkscape:window-maximized="1"
     inkscape:current-layer="svg4"
     inkscape:showpageshadow="2"
     inkscape:deskcolor="#d1d1d1" /><path
     id="path0-0"
     d="M 243.40731,58.641115 279.05436,139.84523 294.1175,33.542913 M 106.85603,167.19098 c -27.517229,34.07659 -59.185574,63.93321 -58.781187,74.08794 0.447784,11.24449 45.755963,57.15142 83.813687,96.82337 l 90.46073,89.05538 2.88297,51.29941 c 133.45568,-116.03921 37.92373,-34.89523 154.67558,-137.89344 58.80824,-51.87906 84.02118,-77.82834 84.02118,-87.08533 0,-8.33186 -24.62479,-35.10236 -46.73564,-55.17132 -39.81896,-37.94513 -51.69451,-50.935 -59.21688,-50.69209 -5.89975,0.19052 -53.27066,49.08717 -53.27066,49.08717 -29.29884,27.90061 -51.02213,44.71234 -51.16258,51.12852 -0.0895,4.08617 16.03734,19.85226 31.63076,39.90408 8.83003,11.84831 22.43248,25.70145 28.74349,40.25912 -13.46747,-3.35351 -18.55871,-7.77435 -28.81329,-14.25937 -33.68646,-21.30445 -46.70485,-31.90418 -58.47803,-31.65108 -8.63274,0.18559 -16.79493,7.90131 -29.99979,16.75971 -15.25922,10.23685 -23.82875,15.56068 -28.29562,17.28014 2.83013,-6.85708 10.22593,-16.51959 19.84387,-30.98739 8.00045,-12.03391 15.1858,-18.71746 15.55103,-25.11082 0.48121,-8.42376 -8.5126,-16.51611 -24.71405,-37.39134 -12.4507,-16.04303 -21.07161,-24.87507 -23.88274,-33.07719 9.20549,1.37477 19.92633,8.03886 37.9356,18.20579 17.19257,9.70579 26.7588,18.26267 34.75301,17.43728 6.75846,-0.69782 12.05924,-8.9701 23.31828,-20.02206 11.27641,-11.06821 21.87538,-20.67196 21.18083,-25.01532 -1.16,-7.25426 -17.29991,-21.77002 -37.80603,-43.57819 -16.84149,-14.96601 -40.18069,-39.172486 -53.21923,-39.498824 -9.81574,-0.245674 -43.44576,37.096854 -74.43529,70.105854 z m 202.61562,-61.84323 -3.83448,55.20934 31.93713,-31.18566"
     stroke="none"
     fill="#000000"
     fill-rule="evenodd"
     style="display:inline;opacity:1;fill:#000000;fill-opacity:1;stroke-width:1.10796"
     sodipodi:nodetypes="ccccsccccscscscccscccscccscscscccc" /></svg>
