<?xml version="1.0" encoding="UTF-8" standalone="no"?>
<svg
   viewBox="0 0 512 512"
   version="1.1"
   id="svg4"
   sodipodi:docname="n25.svg"
   inkscape:version="1.3 (0e150ed6c4, 2023-07-21)"
   xml:space="preserve"
   xmlns:inkscape="http://www.inkscape.org/namespaces/inkscape"
   xmlns:sodipodi="http://sodipodi.sourceforge.net/DTD/sodipodi-0.dtd"
   xmlns="http://www.w3.org/2000/svg"
   xmlns:svg="http://www.w3.org/2000/svg"><defs
     id="defs8" /><sodipodi:namedview
     id="namedview6"
     pagecolor="#ffffff"
     bordercolor="#666666"
     borderopacity="1.0"
     inkscape:pageshadow="2"
     inkscape:pageopacity="0.0"
     inkscape:pagecheckerboard="0"
     showgrid="false"
     inkscape:zoom="1"
     inkscape:cx="133.5"
     inkscape:cy="223"
     inkscape:window-width="1440"
     inkscape:window-height="878"
     inkscape:window-x="-6"
     inkscape:window-y="-6"
     inkscape:window-maximized="1"
     inkscape:current-layer="svg4"
     inkscape:showpageshadow="2"
     inkscape:deskcolor="#d1d1d1" /><path
     id="path0-0"
     d="M 242.17245,51.296483 280.21964,137.96813 296.29699,24.508402 M 96.427078,167.15509 c -29.369986,36.37099 -63.170583,68.23788 -62.738968,79.07633 0.477934,12.00159 48.836743,60.99946 89.45692,103.34255 l 96.55151,95.05154 3.07709,54.75344 C 365.21497,375.52674 263.25079,462.1342 387.86362,352.20105 450.63146,296.82893 477.542,269.13247 477.542,259.2522 c 0,-8.89285 -26.28279,-37.46582 -49.88238,-58.88604 -42.5,-40.5 -55.17514,-54.36449 -63.204,-54.10522 -6.29698,0.20335 -56.8574,52.39224 -56.8574,52.39224 -31.27156,29.77918 -54.45749,47.72285 -54.6074,54.57104 -0.0955,4.36129 17.11715,21.18892 33.76048,42.59085 9.42457,12.64606 23.94288,27.43194 30.67881,42.96979 -14.37424,-3.5793 -19.80828,-8.2978 -30.75331,-15.21946 -35.95459,-22.73889 -49.84951,-34.05231 -62.41539,-33.78217 -9.21399,0.19809 -17.92574,8.43331 -32.0197,17.88815 -16.28663,10.92611 -25.43315,16.60839 -30.20078,18.44363 3.02068,-7.31878 10.91445,-17.63187 21.17997,-33.0738 8.53913,-12.84416 16.20827,-19.97772 16.59809,-26.80155 0.51361,-8.99093 -9.08576,-17.62815 -26.37806,-39.90892 -13.28902,-17.12322 -22.49038,-26.54993 -25.49078,-35.3043 9.8253,1.46733 21.26798,8.58012 40.48983,19.4316 18.35015,10.35929 28.56049,19.49231 37.09295,18.61134 7.21351,-0.7448 12.8712,-9.57406 24.88832,-21.37016 12.03566,-11.81344 23.34826,-22.06381 22.60695,-26.69961 -1.23811,-7.7427 -18.46473,-23.23581 -40.35154,-46.51234 C 214.70122,118.51358 189.79058,92.677266 175.87414,92.328956 165.3975,92.06674 129.50315,131.92357 96.427078,167.15509 Z m 216.257862,-66.00718 -4.09266,58.92662 34.08748,-33.28541"
     stroke="none"
     fill="#000000"
     fill-rule="evenodd"
     style="display:inline;opacity:1;fill:#000000;stroke-width:1.18256;fill-opacity:1"
     sodipodi:nodetypes="ccccsccccscscscccscccscccscscscccc" /></svg>
