<?xml version="1.0" encoding="UTF-8" standalone="no"?>
<svg
   viewBox="0 0 512 512"
   version="1.1"
   id="svg4"
   sodipodi:docname="nightcordlogo.svg"
   inkscape:version="1.3 (0e150ed6c4, 2023-07-21)"
   xml:space="preserve"
   xmlns:inkscape="http://www.inkscape.org/namespaces/inkscape"
   xmlns:sodipodi="http://sodipodi.sourceforge.net/DTD/sodipodi-0.dtd"
   xmlns="http://www.w3.org/2000/svg"
   xmlns:svg="http://www.w3.org/2000/svg"><defs
     id="defs8" /><sodipodi:namedview
     id="namedview6"
     pagecolor="#ffffff"
     bordercolor="#666666"
     borderopacity="1.0"
     inkscape:pageshadow="2"
     inkscape:pageopacity="0.0"
     inkscape:pagecheckerboard="0"
     showgrid="false"
     inkscape:zoom="0.087768556"
     inkscape:cx="4773.9192"
     inkscape:cy="1908.4283"
     inkscape:window-width="1920"
     inkscape:window-height="1051"
     inkscape:window-x="-9"
     inkscape:window-y="-9"
     inkscape:window-maximized="1"
     inkscape:current-layer="svg4"
     inkscape:showpageshadow="2"
     inkscape:deskcolor="#d1d1d1" /><circle
     style="opacity:1;fill:#000000;stroke-width:1.25431;fill-opacity:1"
     id="path1"
     cx="251"
     cy="-255"
     transform="scale(1,-1)"
     r="30" /><circle
     style="opacity:1;fill:#000000;stroke-width:1.2543;fill-opacity:1"
     id="path1-8"
     cx="376"
     cy="-255"
     transform="scale(1,-1)"
     r="30" /><path
     id="path2"
     style="opacity:1;fill:#000000;fill-opacity:1;stroke-width:1.03265"
     d="M 256.5 28.542969 C 130.60261 28.542969 28.542969 130.60261 28.542969 256.5 C 28.542969 382.39739 130.60261 484.45703 256.5 484.45703 C 382.39739 484.45703 484.45703 382.39739 484.45703 256.5 C 484.45703 130.60261 382.39739 28.542969 256.5 28.542969 z M 308 86 C 401.33603 86 477 161.66397 477 255 C 477 348.33603 401.33603 424 308 424 C 214.66397 424 139 348.33603 139 255 C 139 161.66397 214.66397 86 308 86 z " /><path
     id="path3"
     style="display:none;opacity:1;fill:#000000;fill-opacity:1;stroke-width:0.765569"
     d="m 308,86 c -93.33612,0 -169,75.66388 -169,169 0,93.33612 75.66388,169 169,169 93.33612,0 169,-75.66388 169,-169 C 477,161.66388 401.33612,86 308,86 Z"
     sodipodi:nodetypes="sssss" /></svg>

