<?xml version="1.0" encoding="UTF-8" standalone="no"?>
<svg
   viewBox="0 0 512 512"
   version="1.1"
   id="svg4"
   sodipodi:docname="vbs.svg"
   inkscape:version="1.3 (0e150ed6c4, 2023-07-21)"
   xml:space="preserve"
   xmlns:inkscape="http://www.inkscape.org/namespaces/inkscape"
   xmlns:sodipodi="http://sodipodi.sourceforge.net/DTD/sodipodi-0.dtd"
   xmlns="http://www.w3.org/2000/svg"
   xmlns:svg="http://www.w3.org/2000/svg"><defs
     id="defs8" /><sodipodi:namedview
     id="namedview6"
     pagecolor="#ffffff"
     bordercolor="#666666"
     borderopacity="1.0"
     inkscape:pageshadow="2"
     inkscape:pageopacity="0.0"
     inkscape:pagecheckerboard="0"
     showgrid="false"
     inkscape:zoom="1"
     inkscape:cx="253.5"
     inkscape:cy="282"
     inkscape:window-width="1440"
     inkscape:window-height="878"
     inkscape:window-x="-6"
     inkscape:window-y="-6"
     inkscape:window-maximized="1"
     inkscape:current-layer="svg4"
     inkscape:showpageshadow="2"
     inkscape:deskcolor="#d1d1d1" /><path
     id="path0"
     d="M 130.13682,77.562892 C 124.84562,110.65233 109.97361,117.61777 88.50366,93.427619 67.933657,74.600177 54.9674,69.729064 45.222576,78.548603 29.347679,92.91354 45.478754,122.00986 68.271748,122.00986 c 18.695269,0 26.201204,18.25926 7.894231,34.35557 -5.256894,7.74553 -10.806716,13.71609 -9.556716,23.26962 0.727026,5.55653 -2.404996,16.3007 -17.063283,27.42837 -30.900762,33.0348 -35.566591,45.13496 5.893275,71.39118 30.206718,18.73368 31.934694,26.13417 19.816405,54.89056 0,0 -7.851674,13.245 -6.763224,20.29087 0.433078,2.80344 5.001782,6.88505 5.001782,6.88505 4.676034,3.78634 11.891272,5.63379 14.812049,5.63379 6.299117,0 10.232924,9.46877 1.140487,30.92562 -3.891792,10.23679 -6.010701,15.84996 3.804863,23.6772 7.887863,6.29003 21.421803,11.0558 34.530523,10.63131 16.97039,-0.54954 30.13575,14.71735 42.03684,36.58327 5.19761,9.54959 13.86053,9.54265 41.44124,1.60909 32.69664,-8.5249 32.03486,-6.64592 51.2369,-1.76649 9.22983,0.75872 16.18511,-0.73997 17.98432,-2.70965 2.88394,-3.15717 -6.87547,-8.91675 -29.49712,-14.59917 C 72.467343,405.66487 28.124401,181.70297 175.15722,67.521929 196.38051,51.040757 197.43545,49.495211 190.78299,44.62979 178.27882,35.486153 156.035,36.567573 144.1536,48.448961 137.3677,55.236148 131.8959,66.562318 130.13682,77.562892 Z M 278.38853,46.972258 C 77.274295,77.226081 42.026693,345.50677 228.81666,424.27499 c 109.66008,46.24437 240.99093,-17.53121 270.62259,-138.04015 1.48154,-12.51296 -3.2063,-14.80283 -6.45093,-14.92521 -2.93489,-0.1107 -6.14353,1.77932 -10.43247,12.49896 -8.02868,21.81533 -12.714,24.65321 -16.64573,7.48351 -4.33542,-17.27555 -17.69354,-15.88288 -21.50907,10.21832 -3.81324,26.08554 -21.6586,37.98076 -34.03782,26.54325 -6.95231,-6.42344 -3.86125,-11.34069 11.73062,-37.78366 20.78662,-35.25299 21.88865,-60.21337 3.93056,-66.49343 -7.70934,-1.71263 -20.58179,-2.08332 -23.05866,4.60954 -5.99969,16.21201 1.30565,20.13388 -15.05185,56.15544 -30.38988,51.10424 -80.91296,59.26217 -118.14078,43.70756 -99.18445,-33.1267 -71.29736,-179.00262 27.41967,-177.80394 14.55851,0.17677 20.84733,1.38671 21.56892,-2.71309 0.59396,-3.37467 -1.07325,-9.46812 -12.49994,-9.3243 -27.20035,-0.5655 -19.74785,-10.65943 -37.5082,-15.24147 -7.04663,-1.81799 -14.46836,-3.59819 -15.4463,-5.42251 -1.50151,-2.80101 2.618,-11.66049 8.45541,-16.1811 10.71228,-8.295802 25.01924,-8.022859 51.09975,-3.076291 14.60831,2.770691 21.99226,8.002531 32.13065,15.682851 6.65399,5.04072 9.71916,10.48411 18.92721,12.00755 5.8274,0.96413 11.99212,-3.68785 13.66196,-8.04046 -0.227,-9.57535 -5.26709,-13.6228 -21.13654,-14.55464 -25.52516,-3.847438 -25.61059,-15.617087 -20.2824,-27.539263 14.06112,-16.231088 50.77787,-5.342438 80.46227,19.460025 20.40606,17.050578 34.829,26.512248 34.4693,16.998748 C 450.86484,106.41818 417.33267,77.172699 397.14776,66.995731 363.27667,49.918456 314.01746,41.612415 278.38853,46.972258 M 400.85379,372.49189 c -15.89685,8.11902 -18.49429,8.50844 -27.1294,-2.47546 -6.41958,-12.75732 0.73482,-20.85103 6.61628,-24.43117 9.68391,-5.89475 16.29452,-3.817 22.51614,-0.6006 6.01384,7.94582 8.14944,16.96394 -2.00302,27.50723 z M 326.36972,474.2137 c 31.50038,9.79566 33.59414,13.57489 47.42709,0.5699 7.41506,-10.58496 7.77579,-25.53056 1.48581,-22.9122 -11.62845,4.84063 -15.49887,8.60264 -45.74208,9.72268 -17.82978,1.32867 -20.37646,4.78003 -3.17082,12.61962 z"
     stroke="none"
     fill="#000000"
     fill-rule="evenodd"
     style="display:inline;opacity:1;fill:#000000;stroke-width:1.27102;fill-opacity:1"
     sodipodi:nodetypes="cccscscccacscsssccsccccccccsccssscsccsscssssssccccsscccsccccscc" /><ellipse
     style="opacity:1;fill:#000000;fill-opacity:1;stroke-width:1.01065"
     id="path2"
     cx="472.38394"
     cy="230.27049"
     rx="18.464281"
     ry="22.532747" /><ellipse
     style="opacity:1;fill:#000000;fill-opacity:1;stroke-width:1.00546"
     id="path3"
     cx="31.731415"
     cy="316.30899"
     rx="18.473166"
     ry="20.85965" /><circle
     style="opacity:1;fill:#000000;fill-opacity:1"
     id="path4"
     cx="306.25"
     cy="241.75"
     r="25.75" /></svg>
