<?xml version="1.0" encoding="UTF-8" standalone="no"?>
<svg
   viewBox="0 0 512 512"
   version="1.1"
   id="svg4"
   sodipodi:docname="vs.svg"
   inkscape:version="1.3 (0e150ed6c4, 2023-07-21)"
   xml:space="preserve"
   xmlns:inkscape="http://www.inkscape.org/namespaces/inkscape"
   xmlns:sodipodi="http://sodipodi.sourceforge.net/DTD/sodipodi-0.dtd"
   xmlns="http://www.w3.org/2000/svg"
   xmlns:svg="http://www.w3.org/2000/svg"><defs
     id="defs8" /><sodipodi:namedview
     id="namedview6"
     pagecolor="#ffffff"
     bordercolor="#666666"
     borderopacity="1.0"
     inkscape:pageshadow="2"
     inkscape:pageopacity="0.0"
     inkscape:pagecheckerboard="0"
     showgrid="false"
     inkscape:zoom="0.64558803"
     inkscape:cx="392.66527"
     inkscape:cy="161.09345"
     inkscape:window-width="1440"
     inkscape:window-height="878"
     inkscape:window-x="-6"
     inkscape:window-y="-6"
     inkscape:window-maximized="1"
     inkscape:current-layer="svg4"
     inkscape:showpageshadow="2"
     inkscape:deskcolor="#d1d1d1" /><path
     id="path0"
     d="m 304.71139,26.320714 c -34.83326,-8.691661 -30.81606,9.446961 -33.10803,34.727 -1.09714,12.148443 -7.94841,101.545016 -13.77891,207.819126 -1.29694,24.81323 2.37531,34.1462 -14.77466,21.27863 -19.98011,-14.99102 -41.45021,-23.52797 -82.62956,-24.21236 -46.57117,-1.27412 -105.385738,47.19798 -102.759294,111.01207 2.902668,70.52546 44.363754,114.74764 116.099674,116.22681 87.7233,-1.513 112.04534,-68.84308 114.94207,-179.71259 10.83736,-133.01673 7.32027,-137.47939 15.32801,-140.02056 68.95774,4.21502 97.63709,22.08507 131.80881,51.2875 30.73498,29.48225 29.76337,23.27723 23.95483,-27.5727 C 457.0561,161.55669 438.93417,116.93981 411.00425,87.366954 374.85964,44.102958 332.91513,35.630688 304.71139,26.320714 Z"
     stroke="none"
     fill="#000000"
     fill-rule="evenodd"
     style="display:inline;opacity:1;fill:#000000;fill-opacity:1;stroke-width:1.07631"
     sodipodi:nodetypes="cscccsccccccc" /></svg>
